# xmcd CD database file
#
# Track frame offsets:
#	150
#	24306
#	54261
#	78561
#	94917
#	115006
#	139128
#	167920
#
# Disc length: 2796 seconds
#
# Revision: 0
# Processed by: cddbd v1.5.2PL0 Copyright (c) Steve Scherf et al.
# Submitted via: CDex 1.70beta2
#
DISCID=5f0aea08
DTITLE=Green Machine - Splanky
DYEAR=1998
DGENRE=Jazz
TTITLE0=Downtown Shuffle
TTITLE1=Told You So
TTITLE2=Osie Mae
TTITLE3=Missing You
TTITLE4=Splanky
TTITLE5=Billie's Bounce
TTITLE6=The Days of Wine and Roses
TTITLE7=Cantaloupe Island
EXTD=YEAR: 1998
EXTT0=
EXTT1=
EXTT2=
EXTT3=
EXTT4=
EXTT5=
EXTT6=
EXTT7=
PLAYORDER=
